<svg xmlns="http://www.w3.org/2000/svg" width="24" height="24" fill="none" viewBox="0 0 24 24"><g fill="#5f6c87" class="nc-icon-wrapper"><mask id="glass-mask"><rect width="29" height="27" x="0" y="0" fill="#fff"/><ellipse cx="20" cy="18.5" fill="#000" rx="10" ry="10" transform="translate(0.511627 0.757812)"/></mask><g mask="url(#glass-mask)" transform="translate(-1 0) scale(.8)"><path fill="none" stroke="#5f6c87" stroke-linecap="round" stroke-linejoin="round" stroke-miterlimit="10" stroke-width="2" d="M3,4v16c0,1.7,4,3,9,3s9-1.3,9-3V4"/><ellipse cx="12" cy="4" fill="none" stroke="#5f6c87" stroke-linecap="round" stroke-linejoin="round" stroke-miterlimit="10" stroke-width="2" rx="9" ry="3"/><path fill="none" stroke="#5f6c87" stroke-linecap="round" stroke-linejoin="round" stroke-miterlimit="10" stroke-width="2" d="M21,12c0,1.7-4,3-9,3 s-9-1.3-9-3"/></g><g transform="translate(7 7)"><path fill="none" stroke="#5F6C87" stroke-width="2" d="M11.7084 6.30808C11.7084 9.23279 9.31811 11.6162 6.35419 11.6162C3.39027 11.6162 1 9.23279 1 6.30808C1 3.38336 3.39027 1 6.35419 1C9.31811 1 11.7084 3.38336 11.7084 6.30808Z" transform="translate(1.6669 1.90472)"/><line x1="15.5" x2="12" y1="15.5" y2="12" stroke="#5F6C87" stroke-linecap="round" stroke-width="2"/></g></g></svg>